# xmcd
# Copyright (C) 1995-1998 Ti Kan
#
# Track frame offsets:
#       150
#       15585
#       37845
#       56094
#       78924
#       102472
#       123787
#       158587
#       174143
#
# Disc length: 2576 seconds
#
# Revision: 0
# Processed by: cddbd v1.5.2PL0 Copyright (c) Steve Scherf et al.
# Submitted via: CD-Import v1.0
#
DISCID=5a0a0e09
DTITLE=Rodrigo Y Gabriela - Rodrigo Y Gabriela
DYEAR=2006
DGENRE=
TTITLE0=Tamacun
TTITLE1=Diablo Rojo
TTITLE2=Vikingman
TTITLE3=Satori
TTITLE4=Ixtapa
TTITLE5=Stairway To Heaven
TTITLE6=Orion
TTITLE7=Juan Loco
TTITLE8=Ppa
EXTD=
EXTT0=
EXTT1=
EXTT2=
EXTT3=
EXTT4=
EXTT5=
EXTT6=
EXTT7=
EXTT8=
PLAYORDER=
